<svg width="10" height="10" viewBox="0 0 10 10" fill="none" xmlns="http://www.w3.org/2000/svg">
<path d="M5 0C2.2397 0 0 2.2397 0 5C0 7.7603 2.2397 10 5 10C7.7549 10 10 7.7603 10 5C10 2.2397 7.7549 0 5 0ZM8.3026 2.30477C8.89915 3.03146 9.25705 3.95878 9.2679 4.96205C9.1269 4.93495 7.7169 4.6475 6.2961 4.82645C6.26355 4.75595 6.23645 4.68005 6.2039 4.60415C6.11715 4.39805 6.01955 4.18655 5.9219 3.98591C7.49455 3.346 8.2104 2.42408 8.3026 2.30477ZM5 0.73753C6.0846 0.73753 7.077 1.14425 7.8308 1.81128C7.7549 1.91974 7.10955 2.782 5.5911 3.35141C4.89155 2.06616 4.11605 1.0141 3.99675 0.85141C4.3167 0.775485 4.65295 0.73753 5 0.73753ZM3.18331 1.13883C3.29718 1.29067 4.0564 2.34816 4.7668 3.60628C2.77115 4.13775 1.00868 4.1269 0.81887 4.1269C1.09544 2.80369 1.99024 1.70282 3.18331 1.13883ZM0.72668 5.00545C0.72668 4.96205 0.72668 4.91865 0.72668 4.8753C0.91106 4.8807 2.98265 4.9078 5.11385 4.2679C5.23865 4.5065 5.3525 4.75055 5.46095 4.99455C5.4067 5.01085 5.34705 5.0271 5.29285 5.0434C3.0911 5.7538 1.91974 7.6952 1.82212 7.8579C1.14425 7.10415 0.72668 6.10085 0.72668 5.00545ZM5 9.2733C4.013 9.2733 3.10196 8.9371 2.3807 8.3731C2.45662 8.21585 3.32428 6.54555 5.7321 5.705C5.74295 5.69955 5.74835 5.69955 5.7592 5.69415C6.36115 7.25055 6.6052 8.55745 6.6703 8.93165C6.1551 9.154 5.5911 9.2733 5 9.2733ZM7.3807 8.5412C7.3373 8.2809 7.10955 7.0336 6.55095 5.4989C7.89045 5.2874 9.0618 5.6345 9.20825 5.6833C9.0239 6.87095 8.34055 7.89585 7.3807 8.5412Z" fill="#1238FF"/>
</svg>
