<svg width="12" height="12" viewBox="0 0 12 12" fill="none" xmlns="http://www.w3.org/2000/svg">
<g clip-path="url(#clip0_122_408)">
<path fill-rule="evenodd" clip-rule="evenodd" d="M7.66671 3.50559C7.17336 3.17595 6.59334 3 6 3V0C7.18668 0 8.34672 0.351894 9.33342 1.01118C10.3201 1.67047 11.0891 2.60754 11.5433 3.70389C11.9974 4.80024 12.1162 6.00666 11.8847 7.17054C11.6532 8.33442 11.0818 9.40353 10.2426 10.2426C9.40353 11.0818 8.33442 11.6532 7.17054 11.8847C6.00666 12.1162 4.80024 11.9974 3.70389 11.5433C2.60754 11.0891 1.67047 10.3201 1.01118 9.33342C0.351894 8.34672 0 7.18668 0 6H3C3 6.59334 3.17595 7.17336 3.50559 7.66671C3.83523 8.16006 4.30377 8.54457 4.85196 8.77164C5.40012 8.99871 6.00333 9.05811 6.58527 8.94234C7.16721 8.8266 7.70175 8.54088 8.12133 8.12133C8.54088 7.70175 8.8266 7.16721 8.94234 6.58527C9.05811 6.00333 8.99871 5.40012 8.77164 4.85196C8.54457 4.30377 8.16006 3.83523 7.66671 3.50559Z" fill="#1238FF"/>
<path fill-rule="evenodd" clip-rule="evenodd" d="M3 1.29938e-06C3 0.393967 2.9224 0.784075 2.77164 1.14805C2.62087 1.51203 2.3999 1.84275 2.12132 2.12132C1.84275 2.3999 1.51203 2.62088 1.14805 2.77164C0.784072 2.9224 0.393964 3 1.31133e-07 3L0 6C0.78793 6 1.56815 5.84481 2.2961 5.54328C3.02406 5.24175 3.6855 4.79979 4.24263 4.24263C4.79979 3.6855 5.24175 3.02406 5.54328 2.2961C5.84481 1.56815 6 0.78793 6 0L3 1.29938e-06Z" fill="#1238FF"/>
</g>
<defs>
<clipPath id="clip0_122_408">
<rect width="12" height="12" fill="white"/>
</clipPath>
</defs>
</svg>
