<svg width="12" height="12" viewBox="0 0 12 12" fill="none" xmlns="http://www.w3.org/2000/svg">
<path d="M5.64536 1.90708L6.65461 4.76041L6.85246 5.31855L6.85611 2.91313L6.86061 0.50454H8.99606L8.99971 5.93565C9.00106 8.92595 8.99786 11.3808 8.99196 11.3854C8.98606 11.3899 8.88761 11.3854 8.77416 11.3717C8.27956 11.3128 7.62931 11.2538 7.10431 11.2311C6.93096 11.2229 6.78756 11.2139 6.78576 11.2121C6.78441 11.2103 6.64961 10.8309 6.39781 10.1199L6.39786 10.118C6.15206 9.4238 5.79206 8.40605 5.32601 7.0873L5.15581 6.6107L5.15221 8.9033C5.14901 11.0859 5.14721 11.2084 5.12361 11.2084C5.04196 11.2084 4.3386 11.2538 4.10355 11.2765C3.94927 11.2901 3.64072 11.3218 3.41837 11.3491C3.19557 11.3745 3.01043 11.3917 3.0068 11.3881C3.00317 11.3844 3 8.9337 3 5.94155V0.50091H3.00258L3.00226 0.5H5.14631L5.16036 0.540385C5.16391 0.54779 5.19276 0.62822 5.23901 0.758415L5.55971 1.64758L5.64591 1.89533L5.64536 1.90708Z" fill="#1238FF"/>
</svg>
