<svg width="10" height="10" viewBox="0 0 10 10" fill="none" xmlns="http://www.w3.org/2000/svg">
<path d="M5.00001 0C2.25 0 0 2.25 0 5C0 7.75 2.25 10 5.00001 10C7.75001 10 10 7.75 10 5C10 2.25 7.77501 0 5.00001 0ZM6.87501 7.325C5.70001 6.6 4.22501 6.4496 2.47458 6.8496C2.30042 6.9004 2.15 6.775 2.1 6.625C2.05 6.4496 2.175 6.3 2.325 6.25C4.22501 5.8246 5.87501 6 7.17501 6.8C7.35001 6.875 7.37456 7.0746 7.30041 7.225C7.20041 7.3746 7.02541 7.425 6.87501 7.325ZM7.37456 5.975C6.02501 5.15 3.975 4.9 2.4 5.4C2.20042 5.45 1.975 5.35 1.925 5.15C1.875 4.95 1.975 4.7246 2.175 4.6746C4.00001 4.125 6.25001 4.4004 7.80001 5.35C7.95041 5.4254 8.02501 5.675 7.90041 5.85C7.77501 6.025 7.55001 6.1 7.37456 5.975ZM2.15 3.87541C1.9 3.95 1.65 3.8 1.575 3.575C1.5 3.32458 1.65 3.075 1.875 2.99958C3.65 2.47459 6.57501 2.57459 8.42541 3.675C8.65001 3.8 8.72501 4.1 8.60001 4.325C8.47541 4.5004 8.17501 4.5746 7.95041 4.45C6.35001 3.5 3.675 3.4 2.15 3.87541Z" fill="#1238FF"/>
</svg>
